<?xml version="1.0" standalone="no"?><svg xmlns:xlink="http://www.w3.org/1999/xlink" xmlns="http://www.w3.org/2000/svg" viewBox="0 0 1000 1000" preserveAspectRatio="xMaxYMax slice"><g transform="scale(3.115264797507788)"><rect x="0" y="0" width="321" height="321" fill="#ffffff"/><rect x="0" y="0" width="53.5" height="53.5" fill="#F19e3e"/><polygon points="53.5,0 53.5,53.5 0,53.5" fill="#000000"/><rect x="53.5" y="0" width="53.5" height="53.5" fill="#DA784E"/><rect x="53.5" y="0" width="53.5" height="53.5" fill="#DA784E"/><rect x="107" y="0" width="53.5" height="53.5" fill="#000000"/><path d="M 107 53.5 A 53.5 53.5 0 0 0 160.5 0 L 107 0" fill="#F19e3e"/><rect x="160.5" y="0" width="53.5" height="53.5" fill="#ffffff"/><rect x="160.5" y="0" width="26.75" height="26.75" fill="#000000"/><polygon points="187.25,0 187.25,26.75 160.5,26.75" fill="#F19e3e"/><rect x="187.25" y="0" width="26.75" height="26.75" fill="#DA784E"/><polygon points="187.25,0 214,26.75 187.25,26.75" fill="#000000"/><rect x="160.5" y="26.75" width="26.75" height="26.75" fill="#F19e3e"/><polygon points="160.5,26.75 187.25,26.75 187.25,53.5" fill="#000000"/><rect x="187.25" y="26.75" width="26.75" height="26.75" fill="#DA784E"/><polygon points="187.25,26.75 214,26.75 187.25,53.5" fill="#000000"/><rect x="214" y="0" width="53.5" height="53.5" fill="#DA784E"/><polygon points="214,0 267.5,0 214,53.5" fill="#000000"/><rect x="267.5" y="0" width="53.5" height="53.5" fill="#DA784E"/><polygon points="267.5,0 321,0 267.5,53.5" fill="#000000"/><rect x="0" y="53.5" width="53.5" height="53.5" fill="#ffffff"/><rect x="0" y="53.5" width="26.75" height="26.75" fill="#DA784E"/><path d="M 0 80.25 A 26.75 26.75 0 0 1 26.75 53.5 L 26.75 60.1875 A 20.0625 20.0625 0 0 0 6.6875 80.25" fill="#F19e3e"/><rect x="26.75" y="53.5" width="26.75" height="26.75" fill="#F19e3e"/><path d="M 26.75 53.5 A 26.75 26.75 0 0 1 53.5 80.25 L 46.8125 80.25 A 20.0625 20.0625 0 0 0 26.75 60.1875" fill="#000000"/><rect x="0" y="80.25" width="26.75" height="26.75" fill="#F19e3e"/><path d="M 0 80.25 A 26.75 26.75 0 0 0 26.75 107 L 26.75 100.3125 A 20.0625 20.0625 0 0 1 6.6875 80.25" fill="#DA784E"/><rect x="26.75" y="80.25" width="26.75" height="26.75" fill="#DA784E"/><path d="M 26.75 107 A 26.75 26.75 0 0 0 53.5 80.25 L 46.8125 80.25 A 20.0625 20.0625 0 0 1 26.75 100.3125" fill="#000000"/><rect x="53.5" y="53.5" width="53.5" height="53.5" fill="#ffffff"/><rect x="53.5" y="53.5" width="26.75" height="26.75" fill="#000000"/><path d="M 53.5 80.25 A 26.75 26.75 0 0 1 80.25 53.5 L 80.25 60.1875 A 20.0625 20.0625 0 0 0 60.1875 80.25" fill="#000000"/><rect x="80.25" y="53.5" width="26.75" height="26.75" fill="#000000"/><path d="M 80.25 53.5 A 26.75 26.75 0 0 1 107 80.25 L 100.3125 80.25 A 20.0625 20.0625 0 0 0 80.25 60.1875" fill="#DA784E"/><rect x="53.5" y="80.25" width="26.75" height="26.75" fill="#F19e3e"/><path d="M 53.5 80.25 A 26.75 26.75 0 0 0 80.25 107 L 80.25 100.3125 A 20.0625 20.0625 0 0 1 60.1875 80.25" fill="#DA784E"/><rect x="80.25" y="80.25" width="26.75" height="26.75" fill="#000000"/><path d="M 80.25 107 A 26.75 26.75 0 0 0 107 80.25 L 100.3125 80.25 A 20.0625 20.0625 0 0 1 80.25 100.3125" fill="#DA784E"/><rect x="107" y="53.5" width="53.5" height="53.5" fill="#DA784E"/><path d="M 107 107 A 53.5 53.5 0 0 0 160.5 53.5 L 107 53.5" fill="#F19e3e"/><rect x="160.5" y="53.5" width="53.5" height="53.5" fill="#ffffff"/><rect x="160.5" y="53.5" width="26.75" height="26.75" fill="#DA784E"/><polygon points="187.25,53.5 187.25,80.25 160.5,80.25" fill="#000000"/><rect x="187.25" y="53.5" width="26.75" height="26.75" fill="#000000"/><polygon points="187.25,53.5 214,80.25 187.25,80.25" fill="#DA784E"/><rect x="160.5" y="80.25" width="26.75" height="26.75" fill="#F19e3e"/><polygon points="160.5,80.25 187.25,80.25 160.5,107" fill="#000000"/><rect x="187.25" y="80.25" width="26.75" height="26.75" fill="#000000"/><polygon points="187.25,80.25 214,80.25 214,107" fill="#000000"/><rect x="214" y="53.5" width="53.5" height="53.5" fill="#ffffff"/><rect x="214" y="53.5" width="26.75" height="26.75" fill="#000000"/><path d="M 214 80.25 A 26.75 26.75 0 0 0 240.75 53.5 L 214 53.5" fill="#F19e3e"/><rect x="240.75" y="53.5" width="26.75" height="26.75" fill="#DA784E"/><path d="M 240.75 53.5 A 26.75 26.75 0 0 0 267.5 80.25 L 267.5 53.5" fill="#DA784E"/><rect x="214" y="80.25" width="26.75" height="26.75" fill="#000000"/><path d="M 214 80.25 A 26.75 26.75 0 0 1 240.75 107 L 214 107" fill="#DA784E"/><rect x="240.75" y="80.25" width="26.75" height="26.75" fill="#000000"/><path d="M 240.75 107 A 26.75 26.75 0 0 1  267.5 80.25 L 267.5 107" fill="#DA784E"/><rect x="267.5" y="53.5" width="53.5" height="53.5" fill="#ffffff"/><rect x="267.5" y="53.5" width="26.75" height="26.75" fill="#DA784E"/><path d="M 267.5 80.25 A 26.75 26.75 0 0 1 294.25 53.5 L 294.25 60.1875 A 20.0625 20.0625 0 0 0 274.1875 80.25" fill="#DA784E"/><rect x="294.25" y="53.5" width="26.75" height="26.75" fill="#000000"/><path d="M 294.25 53.5 A 26.75 26.75 0 0 1 321 80.25 L 314.3125 80.25 A 20.0625 20.0625 0 0 0 294.25 60.1875" fill="#000000"/><rect x="267.5" y="80.25" width="26.75" height="26.75" fill="#F19e3e"/><path d="M 267.5 80.25 A 26.75 26.75 0 0 0 294.25 107 L 294.25 100.3125 A 20.0625 20.0625 0 0 1 274.1875 80.25" fill="#000000"/><rect x="294.25" y="80.25" width="26.75" height="26.75" fill="#F19e3e"/><path d="M 294.25 107 A 26.75 26.75 0 0 0 321 80.25 L 314.3125 80.25 A 20.0625 20.0625 0 0 1 294.25 100.3125" fill="#000000"/><rect x="0" y="107" width="53.5" height="53.5" fill="#ffffff"/><rect x="0" y="107" width="26.75" height="26.75" fill="#000000"/><path d="M 0 107 A 26.75 26.75 0 0 1 26.75 133.75 L 0 133.75" fill="#DA784E"/><rect x="26.75" y="107" width="26.75" height="26.75" fill="#DA784E"/><path d="M 26.75 133.75 A 26.75 26.75 0 0 1  53.5 107 L 53.5 133.75" fill="#DA784E"/><rect x="0" y="133.75" width="26.75" height="26.75" fill="#000000"/><path d="M 0 160.5 A 26.75 26.75 0 0 0 26.75 133.75 L 0 133.75" fill="#000000"/><rect x="26.75" y="133.75" width="26.75" height="26.75" fill="#DA784E"/><path d="M 26.75 133.75 A 26.75 26.75 0 0 0 53.5 160.5 L 53.5 133.75" fill="#000000"/><rect x="53.5" y="107" width="53.5" height="53.5" fill="#ffffff"/><rect x="53.5" y="107" width="26.75" height="26.75" fill="#DA784E"/><circle cx="66.875" cy="120.375" r="13.375" fill="#F19e3e"/><rect x="80.25" y="107" width="26.75" height="26.75" fill="#DA784E"/><rect x="80.25" y="107" width="26.75" height="26.75" fill="#DA784E"/><rect x="53.5" y="133.75" width="26.75" height="26.75" fill="#DA784E"/><circle cx="66.875" cy="147.125" r="13.375" fill="#F19e3e"/><rect x="80.25" y="133.75" width="26.75" height="26.75" fill="#F19e3e"/><rect x="80.25" y="133.75" width="26.75" height="26.75" fill="#F19e3e"/><rect x="107" y="107" width="53.5" height="53.5" fill="#000000"/><path d="M 107 160.5 A 53.5 53.5 0 0 1  160.5 107 L 107 160.5 A 53.5 53.5 0 0 0 160.5 107" fill="#000000"/><rect x="160.5" y="107" width="53.5" height="53.5" fill="#ffffff"/><rect x="160.5" y="107" width="26.75" height="26.75" fill="#DA784E"/><path d="M 160.5 107 A 26.75 26.75 0 0 1 187.25 133.75 L 160.5 133.75" fill="#DA784E"/><rect x="187.25" y="107" width="26.75" height="26.75" fill="#DA784E"/><path d="M 187.25 133.75 A 26.75 26.75 0 0 1  214 107 L 214 133.75" fill="#DA784E"/><rect x="160.5" y="133.75" width="26.75" height="26.75" fill="#DA784E"/><path d="M 160.5 160.5 A 26.75 26.75 0 0 0 187.25 133.75 L 160.5 133.75" fill="#F19e3e"/><rect x="187.25" y="133.75" width="26.75" height="26.75" fill="#DA784E"/><path d="M 187.25 133.75 A 26.75 26.75 0 0 0 214 160.5 L 214 133.75" fill="#000000"/><rect x="214" y="107" width="53.5" height="53.5" fill="#ffffff"/><rect x="214" y="107" width="26.75" height="26.75" fill="#DA784E"/><polygon points="240.75,107 240.75,133.75 214,133.75" fill="#F19e3e"/><rect x="240.75" y="107" width="26.75" height="26.75" fill="#000000"/><polygon points="240.75,107 267.5,107 240.75,133.75" fill="#000000"/><rect x="214" y="133.75" width="26.75" height="26.75" fill="#000000"/><polygon points="214,133.75 240.75,133.75 240.75,160.5" fill="#000000"/><rect x="240.75" y="133.75" width="26.75" height="26.75" fill="#000000"/><polygon points="240.75,133.75 267.5,160.5 240.75,160.5" fill="#F19e3e"/><rect x="267.5" y="107" width="53.5" height="53.5" fill="#ffffff"/><rect x="267.5" y="107" width="26.75" height="26.75" fill="#000000"/><path d="M 267.5 107 A 26.75 26.75 0 0 1 294.25 133.75 L 267.5 133.75" fill="#F19e3e"/><rect x="294.25" y="107" width="26.75" height="26.75" fill="#000000"/><path d="M 294.25 133.75 A 26.75 26.75 0 0 1  321 107 L 321 133.75" fill="#000000"/><rect x="267.5" y="133.75" width="26.75" height="26.75" fill="#000000"/><path d="M 267.5 160.5 A 26.75 26.75 0 0 0 294.25 133.75 L 267.5 133.75" fill="#F19e3e"/><rect x="294.25" y="133.75" width="26.75" height="26.75" fill="#DA784E"/><path d="M 294.25 133.75 A 26.75 26.75 0 0 0 321 160.5 L 321 133.75" fill="#000000"/><rect x="0" y="160.5" width="53.5" height="53.5" fill="#F19e3e"/><rect x="0" y="160.5" width="53.5" height="53.5" fill="#000000"/><rect x="53.5" y="160.5" width="53.5" height="53.5" fill="#ffffff"/><rect x="53.5" y="160.5" width="26.75" height="26.75" fill="#000000"/><path d="M 53.5 187.25 A 26.75 26.75 0 0 1 80.25 160.5 L 80.25 167.1875 A 20.0625 20.0625 0 0 0 60.1875 187.25" fill="#000000"/><rect x="80.25" y="160.5" width="26.75" height="26.75" fill="#DA784E"/><path d="M 80.25 160.5 A 26.75 26.75 0 0 1 107 187.25 L 100.3125 187.25 A 20.0625 20.0625 0 0 0 80.25 167.1875" fill="#000000"/><rect x="53.5" y="187.25" width="26.75" height="26.75" fill="#F19e3e"/><path d="M 53.5 187.25 A 26.75 26.75 0 0 0 80.25 214 L 80.25 207.3125 A 20.0625 20.0625 0 0 1 60.1875 187.25" fill="#F19e3e"/><rect x="80.25" y="187.25" width="26.75" height="26.75" fill="#F19e3e"/><path d="M 80.25 214 A 26.75 26.75 0 0 0 107 187.25 L 100.3125 187.25 A 20.0625 20.0625 0 0 1 80.25 207.3125" fill="#F19e3e"/><rect x="107" y="160.5" width="53.5" height="53.5" fill="#DA784E"/><polygon points="107,160.5 160.5,214 107,214" fill="#F19e3e"/><rect x="160.5" y="160.5" width="53.5" height="53.5" fill="#ffffff"/><rect x="160.5" y="160.5" width="26.75" height="26.75" fill="#000000"/><polygon points="187.25,160.5 187.25,187.25 160.5,187.25" fill="#F19e3e"/><rect x="187.25" y="160.5" width="26.75" height="26.75" fill="#000000"/><polygon points="187.25,160.5 214,187.25 187.25,187.25" fill="#000000"/><rect x="160.5" y="187.25" width="26.75" height="26.75" fill="#DA784E"/><polygon points="160.5,187.25 187.25,187.25 187.25,214" fill="#000000"/><rect x="187.25" y="187.25" width="26.75" height="26.75" fill="#DA784E"/><polygon points="187.25,187.25 214,187.25 187.25,214" fill="#F19e3e"/><rect x="214" y="160.5" width="53.5" height="53.5" fill="#DA784E"/><rect x="214" y="160.5" width="53.5" height="53.5" fill="#F19e3e"/><rect x="267.5" y="160.5" width="53.5" height="53.5" fill="#000000"/><polygon points="321,160.5 321,214 267.5,214" fill="#F19e3e"/><rect x="0" y="214" width="53.5" height="53.5" fill="#F19e3e"/><polygon points="0,214 53.5,214 53.5,267.5" fill="#F19e3e"/><rect x="53.5" y="214" width="53.5" height="53.5" fill="#DA784E"/><polygon points="107,214 107,267.5 53.5,267.5" fill="#F19e3e"/><rect x="107" y="214" width="53.5" height="53.5" fill="#ffffff"/><rect x="107" y="214" width="26.75" height="26.75" fill="#000000"/><circle cx="120.375" cy="227.375" r="13.375" fill="#DA784E"/><rect x="133.75" y="214" width="26.75" height="26.75" fill="#DA784E"/><rect x="133.75" y="214" width="26.75" height="26.75" fill="#000000"/><rect x="107" y="240.75" width="26.75" height="26.75" fill="#DA784E"/><circle cx="120.375" cy="254.125" r="13.375" fill="#000000"/><rect x="133.75" y="240.75" width="26.75" height="26.75" fill="#DA784E"/><rect x="133.75" y="240.75" width="26.75" height="26.75" fill="#DA784E"/><rect x="160.5" y="214" width="53.5" height="53.5" fill="#ffffff"/><rect x="160.5" y="214" width="26.75" height="26.75" fill="#DA784E"/><path d="M 160.5 240.75 A 26.75 26.75 0 0 0 187.25 214 L 160.5 214" fill="#DA784E"/><rect x="187.25" y="214" width="26.75" height="26.75" fill="#000000"/><path d="M 187.25 214 A 26.75 26.75 0 0 0 214 240.75 L 214 214" fill="#F19e3e"/><rect x="160.5" y="240.75" width="26.75" height="26.75" fill="#DA784E"/><path d="M 160.5 240.75 A 26.75 26.75 0 0 1 187.25 267.5 L 160.5 267.5" fill="#F19e3e"/><rect x="187.25" y="240.75" width="26.75" height="26.75" fill="#F19e3e"/><path d="M 187.25 267.5 A 26.75 26.75 0 0 1  214 240.75 L 214 267.5" fill="#000000"/><rect x="214" y="214" width="53.5" height="53.5" fill="#000000"/><rect x="214" y="214" width="53.5" height="53.5" fill="#F19e3e"/><rect x="267.5" y="214" width="53.5" height="53.5" fill="#F19e3e"/><path d="M 267.5 214 A 53.5 53.5 0 0 1  321 267.5 L 267.5 214 A 53.5 53.5 0 0 0 321 267.5" fill="#000000"/><rect x="0" y="267.5" width="53.5" height="53.5" fill="#ffffff"/><rect x="0" y="267.5" width="26.75" height="26.75" fill="#DA784E"/><polygon points="26.75,267.5 26.75,294.25 0,294.25" fill="#DA784E"/><rect x="26.75" y="267.5" width="26.75" height="26.75" fill="#DA784E"/><polygon points="26.75,267.5 53.5,294.25 26.75,294.25" fill="#DA784E"/><rect x="0" y="294.25" width="26.75" height="26.75" fill="#DA784E"/><polygon points="0,294.25 26.75,294.25 0,321" fill="#DA784E"/><rect x="26.75" y="294.25" width="26.75" height="26.75" fill="#DA784E"/><polygon points="26.75,294.25 53.5,294.25 53.5,321" fill="#F19e3e"/><rect x="53.5" y="267.5" width="53.5" height="53.5" fill="#ffffff"/><rect x="53.5" y="267.5" width="26.75" height="26.75" fill="#F19e3e"/><path d="M 53.5 294.25 A 26.75 26.75 0 0 0 80.25 267.5 L 53.5 267.5" fill="#DA784E"/><rect x="80.25" y="267.5" width="26.75" height="26.75" fill="#DA784E"/><path d="M 80.25 267.5 A 26.75 26.75 0 0 0 107 294.25 L 107 267.5" fill="#000000"/><rect x="53.5" y="294.25" width="26.75" height="26.75" fill="#000000"/><path d="M 53.5 294.25 A 26.75 26.75 0 0 1 80.25 321 L 53.5 321" fill="#DA784E"/><rect x="80.25" y="294.25" width="26.75" height="26.75" fill="#000000"/><path d="M 80.25 321 A 26.75 26.75 0 0 1  107 294.25 L 107 321" fill="#F19e3e"/><rect x="107" y="267.5" width="53.5" height="53.5" fill="#ffffff"/><rect x="107" y="267.5" width="26.75" height="26.75" fill="#000000"/><path d="M 107 294.25 A 26.75 26.75 0 0 1  133.75 267.5 L 133.75 294.25" fill="#000000"/><rect x="133.75" y="267.5" width="26.75" height="26.75" fill="#F19e3e"/><path d="M 133.75 267.5 A 26.75 26.75 0 0 1 160.5 294.25 L 133.75 294.25" fill="#DA784E"/><rect x="107" y="294.25" width="26.75" height="26.75" fill="#000000"/><path d="M 107 294.25 A 26.75 26.75 0 0 0 133.75 321 L 133.75 294.25" fill="#000000"/><rect x="133.75" y="294.25" width="26.75" height="26.75" fill="#000000"/><path d="M 133.75 321 A 26.75 26.75 0 0 0 160.5 294.25 L 133.75 294.25" fill="#000000"/><rect x="160.5" y="267.5" width="53.5" height="53.5" fill="#ffffff"/><rect x="160.5" y="267.5" width="26.75" height="26.75" fill="#000000"/><circle cx="173.875" cy="280.875" r="13.375" fill="#DA784E"/><rect x="187.25" y="267.5" width="26.75" height="26.75" fill="#DA784E"/><rect x="187.25" y="267.5" width="26.75" height="26.75" fill="#F19e3e"/><rect x="160.5" y="294.25" width="26.75" height="26.75" fill="#000000"/><circle cx="173.875" cy="307.625" r="13.375" fill="#F19e3e"/><rect x="187.25" y="294.25" width="26.75" height="26.75" fill="#DA784E"/><rect x="187.25" y="294.25" width="26.75" height="26.75" fill="#000000"/><rect x="214" y="267.5" width="53.5" height="53.5" fill="#DA784E"/><rect x="214" y="267.5" width="53.5" height="53.5" fill="#DA784E"/><rect x="267.5" y="267.5" width="53.5" height="53.5" fill="#F19e3e"/><polygon points="267.5,267.5 321,321 267.5,321" fill="#DA784E"/></g></svg>